<svg xmlns="http://www.w3.org/2000/svg" xmlns:xlink="http://www.w3.org/1999/xlink" width="300" height="300" viewBox="0 0 300 300"><defs><circle id="a" cx="150" cy="150" r="150"/><linearGradient id="b" x1="50%" x2="50%" y1="3.249%" y2="96.774%"><stop offset="1.539%" stop-color="#82DA9E"/><stop offset="100%" stop-color="#48AE76"/></linearGradient></defs><g fill="none" fill-rule="evenodd"><mask id="c" fill="#fff"><use xlink:href="#a"/></mask><use fill="#D8D8D8" xlink:href="#a"/><g fill="url(#b)" mask="url(#c)"><path d="M0 0h305v305H0z"/></g><g fill="#FFF" fill-rule="nonzero"><path d="M150.082 70.001c-6.684.031-13.067.596-18.683 1.58-16.545 2.895-19.549 8.954-19.549 20.127v14.758h39.098v4.919H97.177c-11.363 0-21.312 6.764-24.425 19.631-3.59 14.749-3.749 23.953 0 39.353C75.532 181.832 82.17 190 93.532 190h13.442v-17.69c0-12.781 11.166-24.055 24.425-24.055h39.052c10.87 0 19.549-8.864 19.549-19.676V91.71c0-10.494-8.939-18.377-19.549-20.128-6.716-1.107-13.685-1.61-20.369-1.58zm-21.144 11.87c4.039 0 7.337 3.319 7.337 7.4 0 4.068-3.298 7.357-7.337 7.357-4.053 0-7.336-3.29-7.336-7.356 0-4.082 3.283-7.402 7.336-7.402z"/><path d="M192.857 110v17.063c0 13.23-11.388 24.364-24.375 24.364h-38.973c-10.675 0-19.509 8.998-19.509 19.527v36.59c0 10.413 9.195 16.539 19.51 19.526 12.35 3.577 24.194 4.223 38.972 0 9.823-2.8 19.51-8.438 19.51-19.526v-14.645h-38.974v-4.882h58.483c11.34 0 15.565-7.79 19.508-19.482 4.074-12.037 3.9-23.612 0-39.053C224.207 118.364 218.854 110 207.5 110h-14.643zm-21.92 92.662c4.045 0 7.322 3.264 7.322 7.3 0 4.05-3.277 7.345-7.321 7.345-4.03 0-7.322-3.294-7.322-7.345 0-4.036 3.291-7.3 7.322-7.3z"/></g></g></svg>