<svg width="198" height="44" viewBox="0 0 198 44" xmlns="http://www.w3.org/2000/svg"><g fill="#FFF" fill-rule="evenodd"><path d="M29.037 18.655c.38-1.558.333-3.023-.522-5.07 0 0 1.377.53 1.234-.524-.144-1.054-1.66-2.167-2.8-2.868-.503-.31-1.86-.973-3.68-1.376l.34-.763-.094-.046c-2.823-1.367-6.087-.127-6.12-.114l-.1.038.322.85c-.954.22-1.874.56-2.74 1.016-7.672 4.06-3.78 11.99-1.404 13.877 2.378 1.887 1.282 5.732 0 9.217h10.304c.144-.652.02.32.5-2.28.48-2.602 2.33-1.636 3.79-1.72 1.458-.085 1.227-1.098 1.21-2.23.712-.32.712-.656.236-1.063.617-.573.522-.573.19-1.122-.33-.55-.095-.814-.095-.814s.996-.192 1.138-.716c.046-1.13-2.09-2.736-1.71-4.29zm-2.13-.327l-1.526-.516c-.08.208-.864 2.136-1.873 2.475l-.962-1.267c-.463.36-1.52.677-2.028.53v-.047h-.027l.03 3.492c-2.026.207-4.446-1.012-5.604-2.69l-1.266.955c-1.44-1.73-1.66-3.815-1.674-5.016h1.696c0-1.328.522-3.058 1.256-4.013l1.33.936c.11-.134 1.113-1.33 2.458-1.76h.02l-.96-2.53c2.03-.58 3.52-.572 5.143.03.05.015.1.038.144.067l.025.02-.287.753c.076.033 1.153.514 1.598.966l.36-.493a6.083 6.083 0 0 1 2.738 3.63l-.55.196v-.015a7.895 7.895 0 0 1-.04 4.298z"/><path d="M20.42 13.715a1.7 1.7 0 0 0-1.57 1.04 1.685 1.685 0 0 0 .368 1.84c.485.48 1.214.626 1.848.365a1.687 1.687 0 0 0 1.048-1.56c0-.93-.76-1.684-1.695-1.685zm49.628 7.487a12.197 12.197 0 0 1-.834 4.575 10.302 10.302 0 0 1-5.987 5.922 12.91 12.91 0 0 1-4.725.834h-8.68V9.874H58.5c1.615-.02 3.218.264 4.726.84 1.36.52 2.6 1.313 3.642 2.328a10.414 10.414 0 0 1 2.347 3.583c.57 1.46.852 3.012.833 4.577zm-4.348 0a10.482 10.482 0 0 0-.495-3.345 6.944 6.944 0 0 0-1.434-2.507 6.263 6.263 0 0 0-2.268-1.577 7.851 7.851 0 0 0-3-.55h-4.427v15.953h4.427a7.776 7.776 0 0 0 3-.55 6.27 6.27 0 0 0 2.27-1.575 6.937 6.937 0 0 0 1.433-2.506 10.5 10.5 0 0 0 .495-3.342zm7.128-2.507c1.86-1.692 4.096-2.538 6.71-2.538a6.61 6.61 0 0 1 2.538.46c.716.29 1.36.73 1.89 1.29a5.498 5.498 0 0 1 1.173 1.968c.275.807.41 1.654.402 2.506v10.154h-1.766a1.765 1.765 0 0 1-.85-.165c-.2-.11-.357-.333-.473-.667l-.346-1.16c-.38.343-.78.665-1.197.964-.38.27-.787.505-1.214.696a6.503 6.503 0 0 1-1.347.43 7.75 7.75 0 0 1-1.586.143 6.23 6.23 0 0 1-1.89-.273 4.152 4.152 0 0 1-1.497-.823 3.7 3.7 0 0 1-.977-1.363 4.81 4.81 0 0 1-.346-1.896c0-.412.07-.822.205-1.213.148-.42.375-.81.67-1.147.35-.4.754-.748 1.204-1.033a7.87 7.87 0 0 1 1.82-.846c.82-.263 1.66-.46 2.513-.586a25.146 25.146 0 0 1 3.277-.274v-.94c0-1.076-.23-1.872-.693-2.39-.46-.516-1.128-.775-2-.775-.53-.014-1.06.06-1.567.22-.38.13-.747.295-1.095.493-.316.182-.604.346-.865.493-.263.15-.562.225-.865.22a1.13 1.13 0 0 1-.693-.212 1.761 1.761 0 0 1-.457-.493l-.68-1.24zm8.916 6.97c-.95.034-1.898.13-2.836.288-.635.1-1.254.283-1.843.54-.393.165-.736.43-.993.768-.196.282-.3.616-.3.957 0 .68.202 1.166.607 1.458.403.292.932.438 1.584.438.715.02 1.424-.13 2.07-.43a6.091 6.091 0 0 0 1.71-1.305v-2.712zm13.051 7.115c-1.408 0-2.486-.393-3.237-1.182-.75-.788-1.126-1.877-1.127-3.266V19.35h-1.658a.772.772 0 0 1-.536-.205.79.79 0 0 1-.22-.61v-1.53l2.594-.43.818-4.388a.868.868 0 0 1 .3-.486.889.889 0 0 1 .568-.17h2.018v5.067h4.323v2.752h-4.323v8.71c0 .5.123.893.37 1.175a1.28 1.28 0 0 0 1.01.43c.204.005.41-.024.605-.086.148-.05.292-.11.432-.182.12-.063.228-.123.323-.18a.534.534 0 0 1 .288-.086.444.444 0 0 1 .288.086c.09.075.17.162.237.258l1.166 1.88a5.908 5.908 0 0 1-1.952 1.065c-.737.24-1.51.363-2.285.36zm6.387-14.085c1.86-1.692 4.096-2.538 6.71-2.538a6.61 6.61 0 0 1 2.538.46c.716.29 1.36.73 1.89 1.29a5.513 5.513 0 0 1 1.173 1.968c.276.807.41 1.654.402 2.506v10.154h-1.765a1.765 1.765 0 0 1-.85-.165c-.2-.11-.358-.333-.473-.667l-.346-1.16c-.38.343-.78.665-1.196.964-.38.27-.787.505-1.214.696a6.503 6.503 0 0 1-1.347.43 7.733 7.733 0 0 1-1.585.143 6.23 6.23 0 0 1-1.89-.273 4.152 4.152 0 0 1-1.497-.823 3.698 3.698 0 0 1-.976-1.363 4.81 4.81 0 0 1-.346-1.896c0-.412.07-.822.205-1.213.15-.42.376-.81.67-1.147.35-.4.755-.748 1.205-1.033a7.91 7.91 0 0 1 1.82-.846c.82-.263 1.66-.46 2.513-.586a25.225 25.225 0 0 1 3.28-.277v-.94c0-1.076-.23-1.872-.692-2.39-.462-.516-1.13-.775-2-.775a4.783 4.783 0 0 0-1.568.22c-.38.13-.747.295-1.096.493-.315.182-.603.347-.864.493a1.722 1.722 0 0 1-.865.22 1.131 1.131 0 0 1-.693-.213 1.747 1.747 0 0 1-.457-.493l-.683-1.237zm8.92 6.973c-.952.033-1.9.128-2.837.286a7.621 7.621 0 0 0-1.843.54 2.41 2.41 0 0 0-.993.77c-.197.28-.302.613-.3.955 0 .678.2 1.164.606 1.456.404.293.933.44 1.585.44a4.668 4.668 0 0 0 2.072-.43 6.217 6.217 0 0 0 1.71-1.308v-2.71zm23.838 1.519c.233 0 .455.097.614.266l1.67 1.802a9.158 9.158 0 0 1-3.41 2.617c-1.346.606-2.966.91-4.86.91-1.69 0-3.212-.288-4.562-.86a10.036 10.036 0 0 1-3.458-2.4 10.46 10.46 0 0 1-2.195-3.667 13.654 13.654 0 0 1-.765-4.653c-.02-1.596.258-3.182.82-4.677a10.715 10.715 0 0 1 2.304-3.658 10.466 10.466 0 0 1 3.547-2.39 11.891 11.891 0 0 1 4.57-.86c1.658 0 3.13.273 4.417.815 1.222.5 2.338 1.226 3.29 2.137l-1.418 1.957a1.26 1.26 0 0 1-.323.328.909.909 0 0 1-.543.144c-.17-.005-.34-.05-.488-.135a6.44 6.44 0 0 1-.552-.328c-.2-.13-.43-.273-.694-.43a5.676 5.676 0 0 0-.913-.43 7.612 7.612 0 0 0-1.205-.328 8.263 8.263 0 0 0-1.585-.134 7.05 7.05 0 0 0-2.793.543 6.06 6.06 0 0 0-2.182 1.565 7.198 7.198 0 0 0-1.418 2.507 10.424 10.424 0 0 0-.504 3.377 9.85 9.85 0 0 0 .543 3.398c.32.924.82 1.775 1.472 2.507a6.293 6.293 0 0 0 2.19 1.55c.856.363 1.78.547 2.71.54.524.003 1.047-.03 1.567-.095a6.71 6.71 0 0 0 1.296-.298c.39-.134.766-.31 1.12-.524.372-.23.723-.496 1.046-.792.1-.09.21-.166.33-.226a.804.804 0 0 1 .358-.083zm4.637-8.492c1.86-1.692 4.096-2.538 6.712-2.538a6.606 6.606 0 0 1 2.535.46c.716.29 1.36.73 1.89 1.29a5.5 5.5 0 0 1 1.174 1.968 7.52 7.52 0 0 1 .4 2.506v10.154h-1.763a1.765 1.765 0 0 1-.85-.165c-.2-.11-.358-.333-.473-.667l-.346-1.16c-.38.343-.78.665-1.197.964a7.11 7.11 0 0 1-1.213.696 6.503 6.503 0 0 1-1.347.43 7.743 7.743 0 0 1-1.586.143 6.238 6.238 0 0 1-1.89-.273 4.157 4.157 0 0 1-1.496-.823 3.689 3.689 0 0 1-.977-1.363 4.826 4.826 0 0 1-.345-1.896c0-.412.07-.822.205-1.213.148-.42.376-.81.67-1.147.35-.4.755-.748 1.204-1.033a7.93 7.93 0 0 1 1.82-.846c.82-.263 1.66-.46 2.514-.586a25.146 25.146 0 0 1 3.277-.274v-.94c0-1.076-.23-1.872-.693-2.39-.462-.516-1.13-.775-2-.775a4.783 4.783 0 0 0-1.568.22c-.38.13-.747.295-1.096.493-.315.182-.603.346-.864.493-.264.15-.562.225-.865.22a1.13 1.13 0 0 1-.694-.212 1.747 1.747 0 0 1-.457-.493l-.683-1.24zm8.916 6.97c-.95.034-1.898.13-2.836.288a7.643 7.643 0 0 0-1.843.544c-.393.165-.736.43-.993.77-.195.28-.3.613-.298.955 0 .68.202 1.165.606 1.457.405.292.933.438 1.585.438a4.64 4.64 0 0 0 2.07-.43 6.113 6.113 0 0 0 1.71-1.31v-2.712zm7.885 6.869v-16.08h2.38a.956.956 0 0 1 .992.706l.252 1.19c.277-.305.575-.593.89-.86a5.539 5.539 0 0 1 2.128-1.12 5.06 5.06 0 0 1 1.33-.165c1.02 0 1.857.275 2.513.823.68.583 1.19 1.34 1.473 2.186.234-.508.554-.97.946-1.372.364-.37.784-.685 1.243-.93a5.73 5.73 0 0 1 1.44-.535 7.102 7.102 0 0 1 1.538-.172 6.496 6.496 0 0 1 2.38.408 4.582 4.582 0 0 1 1.747 1.19c.49.555.86 1.207 1.08 1.912.258.836.383 1.706.37 2.58v10.24h-3.89V22.3c0-1.024-.227-1.794-.68-2.31-.45-.518-1.112-.776-1.983-.776a2.964 2.964 0 0 0-1.11.203 2.658 2.658 0 0 0-.9.588 2.698 2.698 0 0 0-.606.963 3.775 3.775 0 0 0-.22 1.332v10.234h-3.906V22.3c0-1.076-.218-1.86-.654-2.35-.436-.492-1.074-.738-1.914-.738a3.155 3.155 0 0 0-1.585.416c-.515.3-.976.683-1.363 1.135v11.77h-3.89zm30.504-13.884a8.394 8.394 0 0 1 2.252-1.802c.84-.46 1.827-.69 2.962-.69.838-.01 1.667.18 2.418.55.745.377 1.392.92 1.89 1.59.57.77.986 1.643 1.23 2.568.304 1.142.45 2.32.432 3.502.01 1.13-.154 2.256-.488 3.336a8.134 8.134 0 0 1-1.394 2.663 6.439 6.439 0 0 1-2.19 1.763 6.39 6.39 0 0 1-2.874.635c-.792.02-1.58-.12-2.316-.416a5.701 5.701 0 0 1-1.718-1.147v6.58h-3.89V16.455h2.38a.955.955 0 0 1 .992.705l.314 1.49zm.204 9.712c.382.487.876.874 1.442 1.128a4.31 4.31 0 0 0 1.693.33 3.749 3.749 0 0 0 1.586-.33c.48-.227.896-.572 1.205-1.003.36-.514.62-1.09.765-1.7.19-.793.28-1.606.268-2.42a10.72 10.72 0 0 0-.228-2.39 4.607 4.607 0 0 0-.654-1.59 2.577 2.577 0 0 0-1.03-.892 3.237 3.237 0 0 0-1.38-.287 3.941 3.941 0 0 0-2.064.51 6.19 6.19 0 0 0-1.607 1.432l.006 7.212z"/><path d="M20.76 43.967c-.237 0-.47-.06-.68-.173l-16.652-9.11a1.407 1.407 0 0 1-.72-1.083L.008 8.245c-.07-.65.318-1.26.937-1.475L20.085.08c.3-.104.626-.104.926 0l19.557 6.685c.627.22 1.016.844.937 1.5L38.4 33.623a1.406 1.406 0 0 1-.706 1.054l-16.24 9.11c-.21.118-.45.18-.693.18zM4.91 32.93l15.85 8.67 15.452-8.667 2.97-24.262-18.626-6.377L2.326 8.67 4.91 32.93z"/></g></svg>