<svg xmlns="http://www.w3.org/2000/svg" viewBox="0 0 17.91 17.91"><defs><style>.cls-1{fill:#17a9d0}</style></defs><title>info</title><g id="Calque_2" data-name="Calque 2"><path class="cls-1" d="M9 0a9 9 0 1 0 9 9 9 9 0 0 0-9-9zm.9 13.42a1 1 0 0 1-.22.33 1 1 0 0 1-.33.22 1.06 1.06 0 0 1-.41.08 1.08 1.08 0 0 1-.42-.05 1 1 0 0 1-.52-.58 1.09 1.09 0 0 1 0-.82 1 1 0 0 1 .22-.33 1.06 1.06 0 0 1 .3-.27 1 1 0 0 1 .41 0 1 1 0 0 1 .41.08 1.11 1.11 0 0 1 .33.22 1 1 0 0 1 .22 1.15zm1.85-6.29a2.52 2.52 0 0 1-.38.66 2.86 2.86 0 0 1-.5.49l-.51.39a3.94 3.94 0 0 0-.42.33.71.71 0 0 0-.21.4l-.16 1H8.41l-.12-1.09a.91.91 0 0 1 .09-.57 1.74 1.74 0 0 1 .36-.45 4.68 4.68 0 0 1 .5-.39 4.59 4.59 0 0 0 .52-.41 2.17 2.17 0 0 0 .4-.5 1.3 1.3 0 0 0 .16-.66 1 1 0 0 0-.09-.45 1 1 0 0 0-.23-.34 1.16 1.16 0 0 0-.4-.22 1.59 1.59 0 0 0-.5-.08 2.23 2.23 0 0 0-.66.09 2.48 2.48 0 0 0-.46.19l-.32.19a.44.44 0 0 1-.23.09.38.38 0 0 1-.43-.2l-.45-.71a4.85 4.85 0 0 1 .51-.39A3.71 3.71 0 0 1 8.41 4a4 4 0 0 1 .82-.08 3.42 3.42 0 0 1 1.09.08 2.45 2.45 0 0 1 .84.47 2.1 2.1 0 0 1 .54.74 2.36 2.36 0 0 1 .19 1 2.46 2.46 0 0 1-.14.92z" id="Calque_1-2" data-name="Calque 1"/></g></svg>