<svg xmlns="http://www.w3.org/2000/svg" viewBox="0 0 173 39"><g fill="none" fill-rule="evenodd"><path fill="#FFF" d="M61.204 18.793a10.95 10.95 0 0 1-.73 4.055 9.066 9.066 0 0 1-5.23 5.249 11.137 11.137 0 0 1-4.129.74h-7.584V8.751h7.583a11.04 11.04 0 0 1 4.129.744 9.33 9.33 0 0 1 3.182 2.064 9.244 9.244 0 0 1 2.05 3.176 10.92 10.92 0 0 1 .729 4.057zm-3.8 0a9.415 9.415 0 0 0-.432-2.965 6.178 6.178 0 0 0-1.253-2.222 5.472 5.472 0 0 0-1.982-1.398 6.774 6.774 0 0 0-2.62-.488h-3.869v14.14h3.868a6.709 6.709 0 0 0 2.621-.487 5.478 5.478 0 0 0 1.984-1.396c.566-.643.993-1.4 1.252-2.221.3-.957.447-1.96.432-2.962v-.001zm6.229-2.222c1.625-1.5 3.578-2.25 5.862-2.25a5.703 5.703 0 0 1 2.218.408 4.703 4.703 0 0 1 1.651 1.143 4.89 4.89 0 0 1 1.025 1.744c.24.716.358 1.467.351 2.222v9h-1.543a1.524 1.524 0 0 1-.742-.146c-.175-.098-.312-.296-.414-.592l-.302-1.028c-.332.304-.681.59-1.046.855a6.263 6.263 0 0 1-1.06.617c-.378.17-.773.297-1.177.38a6.586 6.586 0 0 1-1.386.127 5.37 5.37 0 0 1-1.652-.242 3.613 3.613 0 0 1-1.308-.729 3.28 3.28 0 0 1-.853-1.208 4.317 4.317 0 0 1-.302-1.68c0-.366.06-.73.179-1.076.129-.372.327-.718.585-1.016a4.854 4.854 0 0 1 1.052-.916 6.83 6.83 0 0 1 1.59-.75 13.62 13.62 0 0 1 2.196-.52 21.665 21.665 0 0 1 2.863-.242v-.833c0-.954-.2-1.66-.605-2.119-.402-.457-.986-.687-1.748-.687a4.128 4.128 0 0 0-1.369.195 5.563 5.563 0 0 0-.957.437 69.33 69.33 0 0 1-.755.437c-.23.133-.492.2-.756.195a.978.978 0 0 1-.606-.188 1.553 1.553 0 0 1-.4-.437l-.593-1.099.002-.002zm7.79 6.178c-.83.03-1.659.115-2.478.255a6.522 6.522 0 0 0-1.61.478 2.126 2.126 0 0 0-.868.681 1.5 1.5 0 0 0-.262.848c0 .603.176 1.034.53 1.293.352.259.815.388 1.384.388a3.982 3.982 0 0 0 1.809-.381 5.331 5.331 0 0 0 1.494-1.157V22.75zm11.403 6.306c-1.23 0-2.172-.348-2.828-1.048-.656-.698-.984-1.663-.985-2.895v-7.96h-1.449a.67.67 0 0 1-.468-.183.706.706 0 0 1-.192-.54v-1.356l2.266-.382.715-3.889a.771.771 0 0 1 .262-.43.769.769 0 0 1 .496-.151h1.764v4.49h3.777v2.44h-3.777v7.72c0 .444.107.792.323 1.042.222.254.545.394.882.381.179.004.359-.021.529-.076a2.72 2.72 0 0 0 .377-.162c.105-.055.2-.109.283-.16a.462.462 0 0 1 .251-.075.38.38 0 0 1 .252.076c.078.066.148.143.207.229l1.019 1.666a5.14 5.14 0 0 1-1.706.944 6.293 6.293 0 0 1-1.996.319h-.002zm5.58-12.484c1.626-1.5 3.58-2.25 5.863-2.25a5.703 5.703 0 0 1 2.218.408 4.703 4.703 0 0 1 1.651 1.143 4.901 4.901 0 0 1 1.025 1.744c.241.716.358 1.467.351 2.222v9h-1.542a1.524 1.524 0 0 1-.743-.146c-.174-.098-.312-.296-.413-.592l-.302-1.028c-.332.304-.682.59-1.045.855a6.302 6.302 0 0 1-1.06.617c-.378.17-.773.297-1.178.38a6.57 6.57 0 0 1-1.385.127 5.37 5.37 0 0 1-1.651-.242 3.613 3.613 0 0 1-1.308-.729 3.277 3.277 0 0 1-.853-1.208 4.317 4.317 0 0 1-.302-1.68 3.175 3.175 0 0 1 .765-2.092c.305-.355.66-.663 1.052-.916a6.867 6.867 0 0 1 1.59-.75 13.62 13.62 0 0 1 2.196-.52c.95-.145 1.908-.226 2.866-.245v-.833c0-.954-.2-1.66-.605-2.118-.403-.458-.987-.687-1.747-.687a4.124 4.124 0 0 0-1.37.195 5.602 5.602 0 0 0-.958.437 63.58 63.58 0 0 1-.755.437 1.5 1.5 0 0 1-.755.195.978.978 0 0 1-.606-.19 1.54 1.54 0 0 1-.4-.436l-.596-1.097-.003-.001zm7.794 6.18c-.832.03-1.66.114-2.479.254a6.57 6.57 0 0 0-1.61.478 2.11 2.11 0 0 0-.867.683 1.47 1.47 0 0 0-.263.846c0 .601.175 1.032.53 1.29.353.26.815.39 1.385.39a4.029 4.029 0 0 0 1.81-.38 5.441 5.441 0 0 0 1.494-1.16V22.75v.001zm20.828 1.347c.204 0 .398.086.537.235l1.459 1.598a8.016 8.016 0 0 1-2.98 2.32c-1.175.536-2.59.806-4.246.806-1.476 0-2.806-.255-3.986-.762a8.768 8.768 0 0 1-3.021-2.128 9.3 9.3 0 0 1-1.918-3.25 12.26 12.26 0 0 1-.668-4.124c-.018-1.415.225-2.82.716-4.146a9.518 9.518 0 0 1 2.013-3.242 9.138 9.138 0 0 1 3.1-2.119 10.26 10.26 0 0 1 3.992-.762c1.449 0 2.735.242 3.86.723a9.184 9.184 0 0 1 2.874 1.894l-1.239 1.734a1.109 1.109 0 0 1-.282.291.786.786 0 0 1-.474.128.904.904 0 0 1-.427-.12 5.61 5.61 0 0 1-.482-.29 17.936 17.936 0 0 0-.607-.382 4.928 4.928 0 0 0-.797-.381 6.576 6.576 0 0 0-1.053-.29 7.12 7.12 0 0 0-1.385-.12 6.084 6.084 0 0 0-2.44.482 5.297 5.297 0 0 0-1.907 1.387 6.404 6.404 0 0 0-1.239 2.222 9.362 9.362 0 0 0-.44 2.993 8.847 8.847 0 0 0 .474 3.012c.28.82.717 1.574 1.286 2.222a5.5 5.5 0 0 0 1.914 1.374 5.882 5.882 0 0 0 2.368.479 10.4 10.4 0 0 0 1.369-.084c.384-.05.764-.139 1.132-.265.341-.118.67-.274.979-.464.325-.204.632-.44.914-.702a1.27 1.27 0 0 1 .288-.2.694.694 0 0 1 .313-.074l.003.005zm4.052-7.527c1.625-1.5 3.579-2.25 5.864-2.25a5.7 5.7 0 0 1 2.215.408 4.703 4.703 0 0 1 1.652 1.143 4.89 4.89 0 0 1 1.025 1.744 6.74 6.74 0 0 1 .35 2.222v9h-1.54a1.524 1.524 0 0 1-.743-.146c-.175-.098-.313-.296-.413-.592l-.303-1.028c-.332.304-.681.59-1.046.855a6.19 6.19 0 0 1-1.06.617c-.377.17-.772.297-1.176.38a6.58 6.58 0 0 1-1.386.127 5.379 5.379 0 0 1-1.651-.242 3.617 3.617 0 0 1-1.308-.729 3.269 3.269 0 0 1-.853-1.208 4.333 4.333 0 0 1-.302-1.68c0-.366.062-.73.18-1.076.129-.372.328-.718.585-1.016.306-.355.66-.663 1.052-.916a6.884 6.884 0 0 1 1.59-.75c.717-.233 1.45-.408 2.197-.52a21.665 21.665 0 0 1 2.863-.242v-.833c0-.954-.201-1.66-.606-2.119-.403-.457-.987-.687-1.747-.687a4.124 4.124 0 0 0-1.37.195 5.602 5.602 0 0 0-.958.437c-.275.162-.527.307-.755.437-.23.133-.49.2-.755.195a.977.977 0 0 1-.607-.188 1.54 1.54 0 0 1-.4-.437l-.596-1.099.002-.002zm7.79 6.178c-.83.03-1.658.115-2.478.255a6.607 6.607 0 0 0-1.61.482 2.116 2.116 0 0 0-.868.682 1.48 1.48 0 0 0-.26.847c0 .603.176 1.033.53 1.291.353.26.815.389 1.384.389a4.005 4.005 0 0 0 1.809-.382 5.35 5.35 0 0 0 1.494-1.16v-2.404zm6.89 6.088V14.584h2.08c.4-.028.764.234.866.626l.22 1.055c.242-.27.502-.526.778-.763a4.799 4.799 0 0 1 1.86-.993c.378-.1.77-.15 1.161-.145.891 0 1.623.243 2.196.729a4.394 4.394 0 0 1 1.287 1.938c.204-.45.484-.86.826-1.216a4.502 4.502 0 0 1 1.086-.825 4.963 4.963 0 0 1 1.259-.474 6.12 6.12 0 0 1 1.343-.152 5.603 5.603 0 0 1 2.08.361 4.001 4.001 0 0 1 1.526 1.055c.428.492.752 1.07.944 1.695a7.48 7.48 0 0 1 .323 2.286v9.077h-3.399v-9.072c0-.908-.198-1.59-.594-2.048-.393-.459-.971-.687-1.732-.687a2.557 2.557 0 0 0-.97.18 2.32 2.32 0 0 0-.787.52 2.397 2.397 0 0 0-.53.854 3.39 3.39 0 0 0-.191 1.18v9.072h-3.413v-9.071c0-.954-.19-1.649-.572-2.083-.38-.436-.938-.654-1.672-.654a2.726 2.726 0 0 0-1.385.369 4.66 4.66 0 0 0-1.19 1.006v10.432h-3.4v.001zm26.652-12.306a7.354 7.354 0 0 1 1.968-1.598c.734-.407 1.596-.611 2.588-.611a4.603 4.603 0 0 1 2.112.487 4.726 4.726 0 0 1 1.652 1.41 6.738 6.738 0 0 1 1.074 2.276c.266 1.012.394 2.056.378 3.104a9.85 9.85 0 0 1-.426 2.957 7.246 7.246 0 0 1-1.218 2.36 5.642 5.642 0 0 1-1.914 1.563 5.517 5.517 0 0 1-2.511.563 5.013 5.013 0 0 1-2.024-.369 4.977 4.977 0 0 1-1.5-1.017v5.833h-3.4V14.585h2.08c.4-.03.764.233.867.625l.274 1.32zm.178 8.608c.334.432.766.775 1.26 1a3.72 3.72 0 0 0 1.48.292 3.23 3.23 0 0 0 1.385-.292c.42-.201.783-.507 1.053-.89a4.43 4.43 0 0 0 .668-1.506 8.778 8.778 0 0 0 .235-2.145 9.634 9.634 0 0 0-.2-2.118 4.116 4.116 0 0 0-.571-1.41 2.261 2.261 0 0 0-.9-.79c-.38-.174-.79-.26-1.206-.255a3.405 3.405 0 0 0-1.803.452 5.435 5.435 0 0 0-1.404 1.27l.005 6.392h-.002z"/><path fill="#3AC" d="M18.139 38.97a1.24 1.24 0 0 1-.594-.153l-14.55-8.074a1.248 1.248 0 0 1-.629-.96L.007 7.308a1.244 1.244 0 0 1 .819-1.307L17.549.07c.262-.092.547-.092.81 0l17.087 5.925c.548.195.887.748.818 1.33l-2.712 22.476c-.048.393-.277.74-.617.934l-14.19 8.075c-.183.105-.393.16-.605.16h-.001z"/><path fill="#FFF" d="M25.37 16.535c.333-1.38.292-2.68-.455-4.494 0 0 1.203.47 1.078-.464-.126-.934-1.45-1.921-2.447-2.542-.44-.275-1.625-.863-3.215-1.22l.297-.676-.082-.041c-2.467-1.212-5.319-.113-5.347-.101l-.088.034.282.753a9.827 9.827 0 0 0-2.394.9c-6.704 3.6-3.303 10.628-1.227 12.3 2.078 1.673 1.12 5.081 0 8.17h9.003c.126-.578.017.284.437-2.02.42-2.307 2.036-1.45 3.311-1.525 1.274-.076 1.072-.973 1.057-1.977.623-.283.623-.581.207-.942.539-.508.456-.508.166-.994-.289-.488-.083-.722-.083-.722s.87-.17.994-.635c.04-1.001-1.826-2.425-1.494-3.802v-.002z"/><path fill="#3AC" d="M23.51 16.245l-1.334-.457c-.07.184-.755 1.893-1.636 2.194l-.84-1.123c-.405.319-1.329.6-1.773.47v-.042h-.023l.026 3.095c-1.77.183-3.885-.897-4.896-2.384l-1.107.846c-1.258-1.533-1.45-3.381-1.462-4.446h1.482c0-1.177.456-2.71 1.097-3.557l1.162.83c.096-.119.973-1.18 2.148-1.56h.017l-.839-2.243c1.774-.514 3.076-.507 4.494.027a.482.482 0 0 1 .126.06l.022.017-.251.667c.066.03 1.007.456 1.396.857l.315-.437a5.384 5.384 0 0 1 2.392 3.217l-.48.174v-.013a7.095 7.095 0 0 1-.035 3.81l-.001-.002z"/><path fill="#FFF" d="M17.842 12.156c-.6 0-1.141.364-1.372.922a1.509 1.509 0 0 0 .321 1.631 1.476 1.476 0 0 0 1.615.324c.554-.23.916-.777.916-1.383a1.49 1.49 0 0 0-1.481-1.494z"/></g></svg>