<svg xmlns="http://www.w3.org/2000/svg" xmlns:xlink="http://www.w3.org/1999/xlink" width="391" height="171" viewBox="0 0 391 171">
    <defs>
        <linearGradient id="a" x1="11.272%" x2="93.722%" y1="67.614%" y2="13.865%">
            <stop offset="0%" stop-color="#37BBAB"/>
            <stop offset="100%" stop-color="#75C97E"/>
        </linearGradient>
        <path id="b" d="M28.224 5.115a3.623 3.623 0 0 1 5.227-.27c1.516 1.414 1.635 3.83.264 5.394L15.06 31.536a3.628 3.628 0 0 1-5.588-.116L.861 20.772c-1.311-1.617-1.101-4.028.468-5.379a3.623 3.623 0 0 1 5.214.484l5.88 7.273 15.8-18.035z"/>
        <path id="c" d="M13.212 17.353L2.728 27.835a2.93 2.93 0 0 0 4.141 4.142l10.484-10.482 10.482 10.484a2.93 2.93 0 0 0 4.142-4.142L21.495 17.353 31.979 6.871a2.93 2.93 0 0 0-4.142-4.141L17.353 13.212 6.871 2.728A2.93 2.93 0 0 0 2.73 6.869l10.482 10.484z"/>
        <linearGradient id="e" x1="61.921%" x2="48.741%" y1="0%" y2="100%">
            <stop offset="0%" stop-color="#405F8F"/>
            <stop offset="100%" stop-color="#1C3050"/>
        </linearGradient>
        <linearGradient id="f" x1="88.748%" x2="7.384%" y1="12.314%" y2="96.184%">
            <stop offset="0%" stop-color="#405F8F"/>
            <stop offset="100%" stop-color="#1C3050"/>
        </linearGradient>
        <linearGradient id="g" x1="48.626%" x2="48.626%" y1="-11.396%" y2="120.368%">
            <stop offset="0%" stop-color="#E7F1F6"/>
            <stop offset="100%" stop-color="#B6D1E5"/>
        </linearGradient>
        <rect id="i" width="188.922" height="104.219" rx="7.096"/>
        <filter id="h" width="105.3%" height="111.5%" x="-2.6%" y="-2.9%" filterUnits="objectBoundingBox">
            <feOffset dy="4" in="SourceAlpha" result="shadowOffsetOuter1"/>
            <feGaussianBlur in="shadowOffsetOuter1" result="shadowBlurOuter1" stdDeviation="1"/>
            <feColorMatrix in="shadowBlurOuter1" values="0 0 0 0 0 0 0 0 0 0 0 0 0 0 0 0 0 0 0.08 0"/>
        </filter>
        <linearGradient id="j" x1="6.464%" x2="95.497%" y1="102.377%" y2="10.4%">
            <stop offset="0%" stop-color="#37BBAB"/>
            <stop offset="100%" stop-color="#75C97E"/>
        </linearGradient>
    </defs>
    <g fill="none" fill-rule="evenodd">
        <g transform="rotate(-9 273.374 59.813)">
            <ellipse cx="41.926" cy="41.991" fill="url(#a)" rx="41.926" ry="41.991"/>
            <g transform="translate(24.188 24.226)">
                <path d="M0 0h34.67v34.723H0z"/>
                <use fill="#FFF" fill-rule="nonzero" xlink:href="#b"/>
            </g>
        </g>
        <g transform="rotate(9 -35.9 2011.786)">
            <ellipse cx="41.926" cy="41.991" fill="url(#a)" rx="41.926" ry="41.991"/>
            <g transform="translate(24.247 24.284)">
                <path d="M0 0h34.836v34.836H0z"/>
                <mask id="d" fill="#fff">
                    <use xlink:href="#c"/>
                </mask>
                <use fill="#3AC" fill-rule="nonzero" xlink:href="#c"/>
                <g fill="#FFF" mask="url(#d)">
                    <path d="M0 0h35.482v35.482H0z"/>
                </g>
            </g>
        </g>
        <path fill="url(#e)" d="M323.288 163.917H78.802V8.196C78.802 3.669 82.45 0 86.952 0h228.187c4.5 0 8.15 3.67 8.15 8.196v155.721z" transform="translate(-6)"/>
        <path fill="url(#f)" fill-rule="nonzero" d="M354.607 152.787a3.033 3.033 0 0 1 3.03 3.035v4.048c0 6.147-4.974 11.13-11.112 11.13H55.565c-6.137 0-11.113-4.983-11.113-11.13v-4.048a3.033 3.033 0 0 1 3.031-3.035h307.124z" transform="translate(-6)"/>
        <path fill="url(#g)" fill-rule="nonzero" d="M95.99 14.166h211.12a4.055 4.055 0 0 1 4.055 4.055v134.566H91.935V18.221a4.055 4.055 0 0 1 4.055-4.055z" transform="translate(-6)"/>
        <g transform="translate(101.09 31.367)">
            <use fill="#000" filter="url(#h)" xlink:href="#i"/>
            <use fill="#FFF" xlink:href="#i"/>
            <rect width="38.39" height="14.166" x="143.459" y="82.97" fill="#FFC844" rx="3.041"/>
            <g transform="translate(10.324 10.118)">
                <rect width="7.072" height="162.905" x="79.591" y="-77.911" fill="#F0F4F5" rx="3.536" transform="rotate(90 83.127 3.541)"/>
                <rect width="7.072" height="120.408" x="58.375" y="-56.663" fill="url(#j)" rx="3.536" transform="rotate(90 61.911 3.541)"/>
            </g>
            <g fill="#D5EAEF" transform="translate(10.324 30.355)">
                <rect width="7.072" height="93.595" x="44.989" y="-43.256" rx="3.536" transform="rotate(90 48.525 3.541)"/>
                <rect width="7.072" height="149.751" x="73.024" y="-57.169" rx="3.536" transform="rotate(90 76.56 17.707)"/>
                <rect width="7.072" height="119.396" x="57.87" y="-27.825" rx="3.536" transform="rotate(90 61.406 31.873)"/>
            </g>
        </g>
    </g>
</svg>
