<svg xmlns="http://www.w3.org/2000/svg" xmlns:xlink="http://www.w3.org/1999/xlink" width="300" height="300" viewBox="0 0 300 300"><defs><circle id="a" cx="150" cy="150" r="150"/><linearGradient id="b" x1="50%" x2="50%" y1="0%" y2="100%"><stop offset="0%" stop-color="#7DD4E7"/><stop offset="100%" stop-color="#7099D7"/></linearGradient><path id="d" d="M165 55.023c-.05-4.119-.867-8.215-2.35-12.073-1.466-3.875-3.758-7.415-6.383-10.649-5.335-6.449-12.377-11.445-19.983-15.108-7.626-3.678-15.86-6.057-24.194-7.418-8.348-1.367-16.828-1.584-25.16-1.067-8.335.61-16.539 2.02-24.33 4.364-7.793 2.312-15.208 5.458-21.836 9.45C34.159 26.521 28.349 31.41 24.2 36.99c-4.18 5.57-6.48 11.779-6.48 18.034-.005 6.252 2.278 12.475 6.462 18.046 4.136 5.593 9.953 10.492 16.56 14.491 6.625 4.004 14.048 7.152 21.845 9.46 7.794 2.355 16.005 3.756 24.342 4.36 8.336.514 16.82.296 25.165-1.081 8.336-1.365 16.572-3.748 24.196-7.435 7.607-3.665 14.644-8.666 19.978-15.117 2.624-3.234 4.919-6.775 6.38-10.649 1.486-3.858 2.302-7.956 2.35-12.075m0 0c.037 8.267-3.126 16.381-8.23 23.079-5.08 6.76-11.846 12.301-19.285 16.756-7.47 4.446-15.65 7.845-24.165 10.318-8.514 2.507-17.396 3.978-26.389 4.585-17.94 1.077-36.731-1.372-53.727-9.6-8.439-4.12-16.43-9.765-22.705-17.381-3.089-3.82-5.812-8.087-7.624-12.828C1.06 65.228.047 60.132 0 55.023c.03-5.108 1.054-10.206 2.866-14.932 1.782-4.751 4.53-9.014 7.614-12.836 3.094-3.836 6.72-7.125 10.54-10.016 3.82-2.905 7.937-5.316 12.161-7.392C50.182 1.609 68.983-.844 86.931.243c8.995.61 17.881 2.083 26.395 4.599 8.516 2.48 16.697 5.883 24.166 10.334 7.438 4.459 14.203 10.006 19.28 16.767 5.105 6.7 8.262 14.815 8.228 23.08"/><path id="e" d="M99.072 93.232c10.726 0 17.237-5.751 17.237-16.879 0-12.055-6.511-15.58-17.237-15.58H86.815v32.46h12.257zm-2.873 20.03h-9.195V160H60V40h44.243c21.45 0 40.988 7.234 40.988 34.314 0 16.134-9.001 27.82-22.41 33.94L155 160h-30.07l-28.731-46.738z"/></defs><g fill="none" fill-rule="evenodd"><mask id="c" fill="#fff"><use xlink:href="#a"/></mask><use fill="#D8D8D8" xlink:href="#a"/><g fill="url(#b)" mask="url(#c)"><path d="M0 0h300v300H0z"/></g><g fill="#FFF" transform="translate(60 65)"><use xlink:href="#d"/><use xlink:href="#e"/></g></g></svg>