<svg width="74" height="72" viewBox="0 0 74 72" version="1.1" xmlns="http://www.w3.org/2000/svg" xmlns:xlink="http://www.w3.org/1999/xlink"><title>slack logo mark 2</title><g id="Page-1" stroke="none" stroke-width="1" fill="none" fill-rule="evenodd"><g id="slack-logo-mark-2" transform="translate(4.000000, 4.000000)"><path d="M36.9858162,24.0962948 L41.008433,36.2388106 L28.6619834,40.1903624 C27.3502206,36.2192034 25.9526622,31.9907405 24.6425066,28.0278293 C28.6729419,26.7446843 32.9629126,25.3781314 36.9858162,24.0962948 Z M33.3481824,13.115874 L31.4311475,7.3291866 C30.457377,4.30191388 32.1344262,1.06220096 35.2180328,0.0531100478 C38.3016393,-0.902870813 41.6016393,0.74354067 42.6295082,3.7708134 C42.6295082,3.7708134 43.3765788,6.02870694 44.5389009,9.54279075 L50.4737705,7.64784689 C53.557377,6.69186603 56.857377,8.33827751 57.8852459,11.3655502 C58.8590164,14.392823 57.1819672,17.6325359 54.0983607,18.6416268 C54.0983607,18.6416268 51.7785425,19.3813978 48.1725267,20.5309438 C49.4791776,24.4832522 50.8729019,28.7001094 52.1818389,32.6626982 L58.1557377,30.7507177 C61.2393443,29.7947368 64.5393443,31.4411483 65.5672131,34.4684211 C66.5409836,37.4956938 64.8639344,40.7354067 61.7803279,41.7444976 C61.7803279,41.7444976 59.4412503,42.4922068 55.809009,43.6529007 C57.0047883,47.2813155 57.7770492,49.633911 57.7770492,49.6578947 C58.804918,52.6320574 56.9114754,55.8717703 53.7737705,56.7746411 C50.7983607,57.6244019 47.6606557,56.0311005 46.6327869,53.2162679 L44.6460708,47.2192436 C40.6170603,48.5061191 36.3205753,49.878045 32.2843648,51.1661253 C33.475506,54.7805088 34.2442623,57.1224822 34.2442623,57.1464115 C35.2721311,60.1205742 33.3786885,63.3602871 30.2409836,64.2631579 C27.2655738,65.1129187 24.1278689,63.5196172 23.1,60.7047847 L21.1193717,54.7261365 C17.4132861,55.9061407 15.0096988,56.6684211 14.9852459,56.6684211 C11.9557377,57.677512 8.6557377,55.8186603 7.73606557,52.7382775 C6.8704918,49.8172249 8.49344262,46.7368421 11.3606557,45.7277512 L17.4886114,43.7664639 L13.4537008,31.5868384 C9.769359,32.7570787 7.38176213,33.5124402 7.35737705,33.5124402 C4.32786885,34.5215311 1.02786885,32.6626794 0.108196721,29.5822967 C-0.757377049,26.661244 0.86557377,23.5808612 3.73278689,22.5717703 L9.82296451,20.6272382 L7.89836066,14.8177033 C6.92459016,11.7904306 8.60163934,8.5507177 11.6852459,7.54162679 C14.7688525,6.58564593 18.0688525,8.23205742 19.0967213,11.2593301 C19.0967213,11.2593301 19.8470315,13.5270149 21.0136722,17.0541584 L33.3481824,13.115874 Z" id="Shape" stroke="#FFF" stroke-width="6.947" fill="#ECB32D"/><path d="M42.6295082,3.7708134 C41.6016393,0.74354067 38.3016393,-0.902870813 35.2180328,0.0531100478 C32.1344262,1.06220096 30.457377,4.30191388 31.4311475,7.3291866 L46.6327869,53.2162679 C47.6606557,56.0311005 50.7983607,57.6244019 53.7737705,56.7746411 C56.9114754,55.8717703 58.804918,52.6320574 57.7770492,49.6578947 C57.7770492,49.5516746 42.6295082,3.7708134 42.6295082,3.7708134 L42.6295082,3.7708134 Z" id="Shape" fill="#ECB32D"/><path d="M19.0967213,11.2593301 C18.0688525,8.23205742 14.7688525,6.58564593 11.6852459,7.54162679 C8.60163934,8.5507177 6.92459016,11.7904306 7.89836066,14.8177033 L23.1,60.7047847 C24.1278689,63.5196172 27.2655738,65.1129187 30.2409836,64.2631579 C33.3786885,63.3602871 35.2721311,60.1205742 34.2442623,57.1464115 C34.2442623,57.0401914 19.0967213,11.2593301 19.0967213,11.2593301 L19.0967213,11.2593301 Z" id="Shape" fill="#63C1A0"/><path d="M61.7803279,41.7444976 C64.8639344,40.7354067 66.5409836,37.4956938 65.5672131,34.4684211 C64.5393443,31.4411483 61.2393443,29.7947368 58.1557377,30.7507177 L11.3606557,45.7277512 C8.49344262,46.7368421 6.8704918,49.8172249 7.73606557,52.7382775 C8.6557377,55.8186603 11.9557377,57.677512 14.9852459,56.6684211 C15.0934426,56.6684211 61.7803279,41.7444976 61.7803279,41.7444976 L61.7803279,41.7444976 Z" id="Shape" fill="#E01A59"/><path d="M21.0983607,54.7564593 C24.1278689,53.8004785 28.0770492,52.5258373 32.2967213,51.1980861 C31.3229508,48.2239234 30.0245902,44.34689 28.6721311,40.2043062 L17.4737705,43.7626794 L21.0983607,54.7564593 L21.0983607,54.7564593 Z" id="Shape" fill="#331433"/><path d="M44.6852459,47.2148325 C48.904918,45.8870813 52.8540984,44.6124402 55.8836066,43.6564593 C54.9098361,40.6822967 53.6114754,36.8052632 52.2590164,32.6626794 L41.0606557,36.2210526 L44.6852459,47.2148325 L44.6852459,47.2148325 Z" id="Shape" fill="#D62027"/><path d="M54.0983607,18.6416268 C57.1819672,17.6325359 58.8590164,14.392823 57.8852459,11.3655502 C56.857377,8.33827751 53.557377,6.69186603 50.4737705,7.64784689 L3.73278689,22.5717703 C0.86557377,23.5808612 -0.757377049,26.661244 0.108196721,29.5822967 C1.02786885,32.6626794 4.32786885,34.5215311 7.35737705,33.5124402 C7.46557377,33.5124402 54.0983607,18.6416268 54.0983607,18.6416268 L54.0983607,18.6416268 Z" id="Shape" fill="#89D3DF"/><path d="M13.4704918,31.6004785 C16.5,30.6444976 20.4491803,29.3698565 24.6688525,28.0421053 C23.3163934,23.8995215 22.0180328,20.022488 21.0442623,17.0483254 L9.84590164,20.6066986 L13.4704918,31.6004785 L13.4704918,31.6004785 Z" id="Shape" fill="#258B74"/><path d="M37.0032787,24.1119617 C41.2229508,22.7842105 45.1721311,21.5095694 48.2016393,20.5535885 C46.8491803,16.4110048 45.5508197,12.5339713 44.5770492,9.55980861 L33.3786885,13.1181818 L37.0032787,24.1119617 L37.0032787,24.1119617 Z" id="Shape" fill="#819C3C"/></g></g></svg>