<svg viewBox="0 0 353 208" xmlns="http://www.w3.org/2000/svg" xmlns:xlink="http://www.w3.org/1999/xlink">
  <defs>
    <filter x="-8.7%" y="-6.2%" width="126.1%" height="118.7%" filterUnits="objectBoundingBox" id="a">
      <feOffset dx="6" dy="6" in="SourceAlpha" result="shadowOffsetOuter1"/>
      <feGaussianBlur stdDeviation="5" in="shadowOffsetOuter1" result="shadowBlurOuter1"/>
      <feColorMatrix values="0 0 0 0 0 0 0 0 0 0 0 0 0 0 0 0 0 0 0.0270889946 0" in="shadowBlurOuter1" result="shadowMatrixOuter1"/>
      <feMerge>
        <feMergeNode in="shadowMatrixOuter1"/>
        <feMergeNode in="SourceGraphic"/>
      </feMerge>
    </filter>
    <linearGradient x1="54.991%" y1="65.782%" x2="45.208%" y2="38.757%" id="b">
      <stop stop-opacity="0" offset="0%"/>
      <stop offset="100%"/>
    </linearGradient>
    <path d="M7.77 175.097l-5.581-3.226a3.713 3.713 0 0 1-1.854-3.215V64.446A9.902 9.902 0 0 1 5.28 55.87L100.901.633a3.704 3.704 0 0 1 3.707 0l5.763 3.331L12.897 65.64l.073 104.006-5.2 5.452z" id="c"/>
    <linearGradient x1="50%" y1="0%" x2="50%" y2="100%" id="e">
      <stop stop-color="#D4E4F1" offset="0%"/>
      <stop stop-color="#B5CFDD" offset="100%"/>
    </linearGradient>
    <path id="f" d="M0 .156h114.586v116.169H0z"/>
    <path d="M4.944 56.331L100.47 1.116a3.706 3.706 0 0 1 5.562 3.216v104.34a9.902 9.902 0 0 1-4.944 8.574L5.562 172.461A3.706 3.706 0 0 1 0 169.246V64.906a9.902 9.902 0 0 1 4.944-8.575z" id="h"/>
    <linearGradient x1="50%" y1="4.721%" x2="50%" y2="97.676%" id="j">
      <stop stop-color="#C7DBE8" offset="0%"/>
      <stop stop-color="#96B5C7" offset="100%"/>
    </linearGradient>
    <path d="M4.31 5.854l4.978-2.878a2.47 2.47 0 0 1 3.708 2.143v90.949a4.951 4.951 0 0 1-2.472 4.287l-4.979 2.877a2.47 2.47 0 0 1-3.708-2.143V10.14c0-1.768.942-3.402 2.472-4.286z" id="k"/>
    <path d="M4.31 5.854l4.978-2.878a2.47 2.47 0 0 1 3.708 2.143v90.949a4.951 4.951 0 0 1-2.472 4.287l-4.979 2.877a2.47 2.47 0 0 1-3.708-2.143V10.14c0-1.768.942-3.402 2.472-4.286z" id="m"/>
    <path d="M3.31 3.854L8.287.976a2.47 2.47 0 0 1 3.708 2.143v90.949a4.951 4.951 0 0 1-2.472 4.287l-4.979 2.877A2.47 2.47 0 0 1 .837 99.09V8.14c0-1.768.942-3.402 2.472-4.286z" id="o"/>
    <linearGradient x1="50%" y1="50%" x2="64.261%" y2="76.359%" id="q">
      <stop stop-opacity=".491" offset="0%"/>
      <stop stop-opacity="0" offset="100%"/>
    </linearGradient>
    <filter x="0%" y="0%" width="100%" height="100%" filterUnits="objectBoundingBox" id="r">
      <feGaussianBlur in="SourceGraphic"/>
    </filter>
    <filter x="-23.5%" y="-21.4%" width="147%" height="142.7%" filterUnits="objectBoundingBox" id="s">
      <feGaussianBlur stdDeviation="1.799" in="SourceGraphic"/>
    </filter>
    <path d="M22.597 3.66c.07.285.105.58.105.876v4.918a9.902 9.902 0 0 1-4.945 8.574L5.936 24.861a3.77 3.77 0 0 1-.14.077l.05 1.875-3.11-1.707a3.716 3.716 0 0 1-2.363-3.46v-4.918a9.902 9.902 0 0 1 4.945-8.574l11.821-6.833c.069-.04.138-.077.209-.111l.719-.416a3.704 3.704 0 0 1 3.708 0l2.89 1.67-2.068 1.196z" id="t"/>
    <filter x="0%" y="0%" width="100%" height="100%" filterUnits="objectBoundingBox" id="u">
      <feGaussianBlur in="SourceGraphic"/>
    </filter>
    <path d="M5.54 8.03L17.836.922a3.706 3.706 0 0 1 5.562 3.215V9.42a9.902 9.902 0 0 1-4.944 8.573L6.157 25.101a3.706 3.706 0 0 1-5.562-3.216v-5.281A9.902 9.902 0 0 1 5.539 8.03z" id="w"/>
    <linearGradient x1="50%" y1="3.249%" x2="50%" y2="96.774%" id="y">
      <stop stop-color="#82DA9E" offset="1.539%"/>
      <stop stop-color="#48AE76" offset="100%"/>
    </linearGradient>
    <filter x="0%" y="0%" width="100%" height="100%" filterUnits="objectBoundingBox" id="z">
      <feGaussianBlur in="SourceGraphic"/>
    </filter>
    <filter x="-23.5%" y="-21.4%" width="147%" height="142.7%" filterUnits="objectBoundingBox" id="A">
      <feGaussianBlur stdDeviation="1.799" in="SourceGraphic"/>
    </filter>
    <path d="M22.597 3.66c.07.285.105.58.105.876v4.918a9.902 9.902 0 0 1-4.945 8.574L5.936 24.861a3.77 3.77 0 0 1-.14.077l.05 1.875-3.11-1.707a3.716 3.716 0 0 1-2.363-3.46v-4.918a9.902 9.902 0 0 1 4.945-8.574l11.821-6.833c.069-.04.138-.077.209-.111l.719-.416a3.704 3.704 0 0 1 3.708 0l2.89 1.67-2.068 1.196z" id="B"/>
    <filter x="0%" y="0%" width="100%" height="100%" filterUnits="objectBoundingBox" id="C">
      <feGaussianBlur in="SourceGraphic"/>
    </filter>
    <path d="M5.54 8.03L17.836.922a3.706 3.706 0 0 1 5.562 3.215V9.42a9.902 9.902 0 0 1-4.944 8.573L6.157 25.101a3.706 3.706 0 0 1-5.562-3.216v-5.281A9.902 9.902 0 0 1 5.539 8.03z" id="E"/>
    <filter x="0%" y="0%" width="100%" height="100%" filterUnits="objectBoundingBox" id="G">
      <feGaussianBlur in="SourceGraphic"/>
    </filter>
    <filter x="-23.5%" y="-21.4%" width="147%" height="142.7%" filterUnits="objectBoundingBox" id="H">
      <feGaussianBlur stdDeviation="1.799" in="SourceGraphic"/>
    </filter>
    <path d="M22.597 3.66c.07.285.105.58.105.876v4.918a9.902 9.902 0 0 1-4.945 8.574L5.936 24.861a3.77 3.77 0 0 1-.14.077l.05 1.875-3.11-1.707a3.716 3.716 0 0 1-2.363-3.46v-4.918a9.902 9.902 0 0 1 4.945-8.574l11.821-6.833c.069-.04.138-.077.209-.111l.719-.416a3.704 3.704 0 0 1 3.708 0l2.89 1.67-2.068 1.196z" id="I"/>
    <filter x="0%" y="0%" width="100%" height="100%" filterUnits="objectBoundingBox" id="J">
      <feGaussianBlur in="SourceGraphic"/>
    </filter>
    <path d="M5.54 8.03L17.836.922a3.706 3.706 0 0 1 5.562 3.215V9.42a9.902 9.902 0 0 1-4.944 8.573L6.157 25.101a3.706 3.706 0 0 1-5.562-3.216v-5.281A9.902 9.902 0 0 1 5.539 8.03z" id="L"/>
    <linearGradient x1="56.017%" y1="67.42%" x2="45.208%" y2="38.757%" id="N">
      <stop stop-opacity="0" offset="0%"/>
      <stop offset="100%"/>
    </linearGradient>
    <path d="M7.77 175.097l-5.581-3.226a3.713 3.713 0 0 1-1.854-3.215V64.446A9.902 9.902 0 0 1 5.28 55.87L100.901.633a3.704 3.704 0 0 1 3.707 0l5.763 3.331-102.418 59.2-.183 111.933z" id="O"/>
    <linearGradient x1="5.317%" y1="94.951%" x2="5.317%" y2="62.033%" id="R">
      <stop stop-opacity="0" offset="0%"/>
      <stop offset="100%"/>
    </linearGradient>
    <path id="Q" d="M0 .156h114.586v116.169H0z"/>
    <path d="M4.944 55.806L100.47.591a3.706 3.706 0 0 1 5.562 3.216v104.34a9.902 9.902 0 0 1-4.944 8.574L5.562 171.936A3.706 3.706 0 0 1 0 168.721V64.381a9.902 9.902 0 0 1 4.944-8.575z" id="T"/>
    <linearGradient x1="100%" y1="-2.561%" x2="7.497%" y2="93.895%" id="W">
      <stop stop-color="#FBDE7B" offset="0%"/>
      <stop stop-color="#F6AF67" offset="100%"/>
    </linearGradient>
    <path id="V" d="M53.509 71.644L73.369 3.17l-4.748-1.38-17.607 60.703-19.785-18.646-20.33 48.928 4.565 1.9L33.047 52.36z"/>
    <linearGradient x1="50%" y1="0%" x2="50%" y2="100%" id="Y">
      <stop stop-color="#7DD4E7" offset="0%"/>
      <stop stop-color="#7099D7" offset="100%"/>
    </linearGradient>
    <linearGradient x1="77.175%" y1="54.477%" x2="30.288%" y2="-40.259%" id="Z">
      <stop stop-opacity="0" offset="0%"/>
      <stop offset="100%"/>
    </linearGradient>
    <path d="M12.375 5.28l-.128-.074-.01.006c-.87-.402-1.965-.309-3.153.378-2.837 1.64-5.14 6.046-5.14 9.832 0 2.34.879 3.899 2.22 4.363l2.884 1.667 2.796-1.616-1.913-1.106c2.435-1.947 4.293-5.848 4.293-9.25 0-.591-.056-1.133-.162-1.62l1.389-.802-2.935-1.696a2.58 2.58 0 0 0-.14-.082z" id="aa"/>
    <path d="M5.916 1.47c2.837-1.639 5.14.104 5.14 3.891s-2.303 8.192-5.14 9.832c-2.837 1.64-5.14-.103-5.14-3.89s2.303-8.192 5.14-9.832z" id="ac"/>
    <linearGradient x1="50%" y1="2.599%" x2="50%" y2="98.143%" id="ae">
      <stop stop-color="#6BB5E2" offset="0%"/>
      <stop stop-color="#4B79BF" offset="100%"/>
    </linearGradient>
    <path d="M12.375 5.28l-.128-.074-.01.006c-.87-.402-1.965-.309-3.153.378-2.837 1.64-5.14 6.046-5.14 9.832 0 2.34.879 3.899 2.22 4.363l2.884 1.667 2.796-1.616-1.913-1.106c2.435-1.947 4.293-5.848 4.293-9.25 0-.591-.056-1.133-.162-1.62l1.389-.802-2.935-1.696a2.58 2.58 0 0 0-.14-.082z" id="af"/>
    <path d="M5.916 1.47c2.837-1.639 5.14.104 5.14 3.891s-2.303 8.192-5.14 9.832c-2.837 1.64-5.14-.103-5.14-3.89s2.303-8.192 5.14-9.832z" id="ah"/>
    <path d="M12.375 5.28l-.128-.074-.01.006c-.87-.402-1.965-.309-3.153.378-2.837 1.64-5.14 6.046-5.14 9.832 0 2.34.879 3.899 2.22 4.363l2.884 1.667 2.796-1.616-1.913-1.106c2.435-1.947 4.293-5.848 4.293-9.25 0-.591-.056-1.133-.162-1.62l1.389-.802-2.935-1.696a2.58 2.58 0 0 0-.14-.082z" id="aj"/>
    <path d="M5.916 1.47c2.837-1.639 5.14.104 5.14 3.891s-2.303 8.192-5.14 9.832c-2.837 1.64-5.14-.103-5.14-3.89s2.303-8.192 5.14-9.832z" id="al"/>
    <path d="M12.375 5.28l-.128-.074-.01.006c-.87-.402-1.965-.309-3.153.378-2.837 1.64-5.14 6.046-5.14 9.832 0 2.34.879 3.899 2.22 4.363l2.884 1.667 2.796-1.616-1.913-1.106c2.435-1.947 4.293-5.848 4.293-9.25 0-.591-.056-1.133-.162-1.62l1.389-.802-2.935-1.696a2.58 2.58 0 0 0-.14-.082z" id="an"/>
    <path d="M5.916 1.47c2.837-1.639 5.14.104 5.14 3.891s-2.303 8.192-5.14 9.832c-2.837 1.64-5.14-.103-5.14-3.89s2.303-8.192 5.14-9.832z" id="ap"/>
    <filter x="-6.6%" y="-6.1%" width="119.7%" height="118.4%" filterUnits="objectBoundingBox" id="ar">
      <feOffset dx="6" dy="6" in="SourceAlpha" result="shadowOffsetOuter1"/>
      <feGaussianBlur stdDeviation="5" in="shadowOffsetOuter1" result="shadowBlurOuter1"/>
      <feColorMatrix values="0 0 0 0 0 0 0 0 0 0 0 0 0 0 0 0 0 0 0.0270889946 0" in="shadowBlurOuter1" result="shadowMatrixOuter1"/>
      <feMerge>
        <feMergeNode in="shadowMatrixOuter1"/>
        <feMergeNode in="SourceGraphic"/>
      </feMerge>
    </filter>
    <path d="M12.714 177.572l-10.509-5.914a3.713 3.713 0 0 1-1.854-3.215V64.233a9.902 9.902 0 0 1 4.947-8.576L102.126.885a3.704 3.704 0 0 1 3.708 0l9.482 5.554-102.42 59.2-.182 111.933z" id="as"/>
    <path id="au" d="M.987.334h131.147V118.8H.987z"/>
    <path d="M4.944 56.331L100.47 1.116a3.706 3.706 0 0 1 5.562 3.216v104.34a9.902 9.902 0 0 1-4.944 8.574L5.562 172.461A3.706 3.706 0 0 1 0 169.246V64.906a9.902 9.902 0 0 1 4.944-8.575z" id="aw"/>
    <path d="M4.944 56.331L100.47 1.116a3.706 3.706 0 0 1 5.562 3.216v10.29L0 75.197v-10.29a9.902 9.902 0 0 1 4.944-8.575zm8.313-.932c-1.911 1.105-3.463 4.074-3.463 6.626 0 2.552 1.552 3.727 3.463 2.622 1.912-1.105 3.464-4.074 3.464-6.626 0-2.552-1.552-3.727-3.464-2.622zm10.719-6.313c-1.912 1.105-3.464 4.074-3.464 6.626 0 2.552 1.552 3.727 3.464 2.622 1.911-1.105 3.463-4.074 3.463-6.626 0-2.552-1.552-3.727-3.463-2.622zm10.718-6.049c-1.912 1.105-3.464 4.074-3.464 6.626 0 2.552 1.552 3.727 3.464 2.622 1.911-1.105 3.463-4.074 3.463-6.626 0-2.552-1.552-3.726-3.463-2.622z" id="ay"/>
    <linearGradient x1="57.362%" y1="88.212%" x2="31.946%" y2="20.64%" id="az">
      <stop stop-opacity="0" offset="0%"/>
      <stop offset="100%"/>
    </linearGradient>
    <path d="M99.551 31.165c.338 1.763.603 3.592.84 5.443.382 3.001.556 6.168.825 9.256v1.615c-.053.51-.139 1.037-.153 1.525-.212 7.318-1.78 14.94-4.029 22.714-2.159 7.465-5.71 12.486-10.94 15.432-11.42 6.432-22.844 13.151-34.265 19.758-.418.241-.836.529-1.245.79v3.669l23.944-13.84 12.796 7.396-12.57 7.266c-.02.2-.043.401-.067.602-.616 5.022 13.516 3.702 5.875 17.563-7.642 13.86-17.923 3.588-21.386 6.523-1.989 1.684-4.008 3.172-6.019 4.717l5.796 3.35-16.224 9.379-12.796-7.397.045-.026c-2.569-1.523-3.914-4.55-3.88-9.397.013-1.927.021-3.853.026-5.776L18.732 136l-11.358-6.565a5.498 5.498 0 0 1-1.06-.613l-.378-.218.058-.034c-1.027-.868-1.857-2.144-2.497-3.773-1.11-2.823-1.79-6.17-2.46-9.464-.51-2.519-.702-5.324-1.037-8.003v-6.996c.056-.375.127-.754.168-1.123.42-3.686.78-7.355 1.267-11.066.637-4.841 1.892-9.692 4.284-14.435 3.121-6.185 7.025-10.336 11.493-12.92 4.262-2.466 8.525-4.931 12.787-7.395l-3.685-2.13a.212.212 0 0 1-.033-.02l-.162-.093.063-.037c-.052-.118-.08-.306-.077-.59.064-4.968-.016-9.86.142-14.876.13-4.096 1.263-8.228 3.917-12.073 2.09-3.032 4.435-5.295 6.845-7.345 6.669-5.674 13.407-9.823 20.157-12.903C59.894 2.084 62.672.945 65.277.5c1.871-.321 3.477-.157 4.808.463l.016-.01.191.11c.183.095.361.198.534.31l13.236 7.65-9.217 5.327c-.009 7.782-.065 15.593-.01 23.337l.086.05-.085.048c.009 1.226.02 2.45.036 3.673.114 9.303-5.519 20.434-12.791 24.43-7.892 4.334-15.79 9.037-23.685 13.65-7.958 4.649-14.703 16.837-15.23 27.714-.207 4.25-.119 8.356-.102 12.496l3.066 1.772c-.004-4.498-.012-8.995-.005-13.5.002-1.207.027-2.452.198-3.729 1.187-8.875 6.15-17.212 12.414-20.85 7.728-4.49 15.456-8.93 23.185-13.418 1.004-.582 2.027-1.186 3.01-1.99 7.548-6.18 12.877-17.726 12.949-28.012.03-4.28.005-8.526.005-12.786v-1.462c3.537-2.044 6.927-4.019 10.317-5.947.53-.302 1.066-.434 1.587-.573 1.021-.274 1.932-.32 2.748-.172l.225-.13.645.372c.492.188.945.454 1.365.789l11.95 6.907-7.172 4.146z" id="aA"/>
    <linearGradient x1="50%" y1="3.249%" x2="50%" y2="96.774%" id="aC">
      <stop stop-color="#5EBE85" offset="0%"/>
      <stop stop-color="#207145" offset="100%"/>
    </linearGradient>
    <path d="M52.61 141.88l-4.033 2.33c-2.219.832-4.458 1.804-6.65 2.462-3.898 1.171-7.671 1.765-10.912.377-3.12-1.338-4.768-4.471-4.73-9.827.067-9.86.012-19.651.027-29.483.002-1.208.027-2.453.198-3.73 1.187-8.875 6.15-17.212 12.414-20.85 7.728-4.49 15.456-8.93 23.185-13.418 1.004-.582 2.028-1.186 3.01-1.99 7.548-6.18 12.877-17.726 12.949-28.012.03-4.28.006-8.525.006-12.786v-1.461c3.537-2.045 6.926-4.02 10.317-5.948.53-.302 1.065-.434 1.586-.573 3.93-1.053 6.22 1.265 7.793 5.005 1.504 3.58 2.24 7.9 2.81 12.35.38 3.002.555 6.168.823 9.256v1.616c-.053.51-.138 1.036-.152 1.524-.213 7.319-1.78 14.94-4.03 22.715-2.158 7.465-5.71 12.485-10.939 15.431-11.421 6.433-22.844 13.152-34.265 19.758-.419.242-.837.529-1.246.79v4.107L75.014 97.51c0 4.49.006 8.834-.006 13.189-.001.58-.059 1.196-.134 1.81-.616 5.022-2.737 9.458-5.64 13.567-3.032 4.291-6.408 7.585-9.871 10.519-2.23 1.89-4.5 3.532-6.753 5.285zm7.226-21.173c.008 3.417 2.069 5.019 4.572 3.558 2.508-1.464 4.547-5.442 4.545-8.866-.003-3.447-2.02-4.992-4.578-3.504-2.557 1.486-4.548 5.35-4.539 8.812zM.187 107.048v-6.996c.057-.375.127-.754.168-1.123.42-3.686.78-7.355 1.268-11.065.636-4.842 1.89-9.693 4.283-14.436 3.122-6.185 7.025-10.335 11.493-12.92 10.684-6.181 21.368-12.354 32.051-18.53l1.152-.664v-4.107l-1.28.74c-7.325 4.233-14.648 8.466-21.972 12.701-.54.312-1.073.77-1.058-.404.064-4.969-.016-9.86.142-14.877.13-4.096 1.263-8.228 3.917-12.073 2.09-3.031 4.435-5.295 6.846-7.345 6.668-5.674 13.406-9.822 20.156-12.902C60.081 1.803 62.86.664 65.464.218c6.284-1.078 9.568 3.316 9.569 12.048 0 9.642-.093 19.34.026 28.91.114 9.303-5.519 20.435-12.79 24.43-7.893 4.334-15.79 9.037-23.686 13.651-7.957 4.648-14.703 16.836-15.23 27.714-.242 4.962-.08 9.728-.102 14.581-.002.52 0 1.041 0 1.695-2.762 1.597-5.376 3.136-7.99 4.606-.937.526-1.887 1.006-2.805 1.304-4.254 1.387-7.133-.474-8.772-4.641-1.11-2.824-1.79-6.17-2.46-9.465-.51-2.518-.702-5.324-1.037-8.003zm32.222-73.8c.002 3.43 2.041 5.011 4.567 3.54 2.513-1.462 4.559-5.44 4.55-8.848-.011-3.421-2.052-4.99-4.582-3.518-2.537 1.475-4.538 5.367-4.535 8.827z" id="aD"/>
  </defs>
  <g fill="none" fill-rule="evenodd">
    <g filter="url(#a)" transform="translate(3 4.8)">
      <path d="M99.105.15L.549 57.117l27.78 16.057 98.555-56.967z" transform="translate(10.275 118.975)" fill="url(#b)" opacity=".118"/>
      <g transform="translate(.983 .55)">
        <mask id="d" fill="#fff">
          <use xlink:href="#c"/>
        </mask>
        <use fill="#C1D7E5" xlink:href="#c"/>
        <g mask="url(#d)" fill="url(#e)">
          <path d="M-4.957 60.92h21.03v114.203h-21.03z"/>
        </g>
        <g mask="url(#d)">
          <g transform="translate(-1 -6.95)">
            <mask id="g" fill="#fff">
              <use xlink:href="#f"/>
            </mask>
            <use fill="#7E7E7E" xlink:href="#f"/>
            <g mask="url(#g)">
              <path d="M-3.957 7.085h119.172v111.198H-3.957z" fill="#E0F1FF"/>
            </g>
          </g>
        </g>
      </g>
      <g transform="translate(7.4 3.5)">
        <mask id="i" fill="#fff">
          <use xlink:href="#h"/>
        </mask>
        <g mask="url(#i)" fill="url(#j)">
          <path d="M-58.179 86.717L106.064-8.108l55.921 96.859-164.243 94.825z"/>
        </g>
      </g>
      <g transform="translate(55.606 36.913)">
        <mask id="l" fill="#fff">
          <use xlink:href="#k"/>
        </mask>
        <use fill="#C0D6E3" xlink:href="#k"/>
        <path d="M2.81 4.888L7.787 2.01a2.47 2.47 0 0 1 3.708 2.144v90.948a4.951 4.951 0 0 1-2.472 4.287l-4.979 2.878a2.47 2.47 0 0 1-3.708-2.144V9.175c0-1.769.943-3.403 2.472-4.287z" fill="#8AA7B8" mask="url(#l)"/>
      </g>
      <g transform="translate(86.284 20.786)">
        <mask id="n" fill="#fff">
          <use xlink:href="#m"/>
        </mask>
        <use fill="#C0D6E3" xlink:href="#m"/>
        <path d="M2.81 4.888L7.787 2.01a2.47 2.47 0 0 1 3.708 2.144v90.948a4.951 4.951 0 0 1-2.472 4.287l-4.979 2.878a2.47 2.47 0 0 1-3.708-2.144V9.175c0-1.769.943-3.403 2.472-4.287z" fill="#8AA7B8" mask="url(#n)"/>
      </g>
      <g transform="translate(23.232 57.475)">
        <mask id="p" fill="#fff">
          <use xlink:href="#o"/>
        </mask>
        <use fill="#C0D6E3" xlink:href="#o"/>
        <path d="M1.81 2.888L6.787.01a2.47 2.47 0 0 1 3.708 2.144v90.948a4.951 4.951 0 0 1-2.472 4.287l-4.979 2.878a2.47 2.47 0 0 1-3.708-2.144V7.175c0-1.769.943-3.403 2.472-4.287z" fill="#8AA7B8" mask="url(#p)"/>
      </g>
      <g>
        <g transform="translate(18.288 74.644)">
          <path d="M5.445 14.086l11.822-6.833a3.706 3.706 0 0 1 5.562 3.215v14.818a9.902 9.902 0 0 1-4.944 8.573L6.063 40.693a3.706 3.706 0 0 1-5.562-3.216V22.66a9.902 9.902 0 0 1 4.944-8.573z" fill="url(#q)" opacity=".221" filter="url(#r)"/>
          <path d="M5.59 13.58l12.17-7.035a3.815 3.815 0 0 1 5.726 3.31v5.063c0 3.64-1.94 7.005-5.09 8.826l-12.17 7.034a3.815 3.815 0 0 1-5.725-3.31v-5.063c0-3.64 1.94-7.005 5.09-8.826z" fill="#000" opacity=".429" filter="url(#s)"/>
          <mask id="v" fill="#fff">
            <use xlink:href="#t"/>
          </mask>
          <use fill="#AAF5C2" filter="url(#u)" xlink:href="#t"/>
          <g mask="url(#v)" fill="#AAF5C2">
            <path d="M12.994-10.34l23.569 23.568L11.31 38.479l-23.568-23.568z"/>
          </g>
        </g>
        <g transform="translate(21.528 76.26)">
          <mask id="x" fill="#fff">
            <use xlink:href="#w"/>
          </mask>
          <use fill="#61C187" xlink:href="#w"/>
          <g mask="url(#x)" fill="url(#y)">
            <path d="M-6.984 13.99L22.503-3.036 31.52 12.58 2.032 29.606z"/>
          </g>
        </g>
        <g transform="translate(81.288 33.448)">
          <path d="M5.445 14.086l11.822-6.833a3.706 3.706 0 0 1 5.562 3.215v14.818a9.902 9.902 0 0 1-4.944 8.573L6.063 40.693a3.706 3.706 0 0 1-5.562-3.216V22.66a9.902 9.902 0 0 1 4.944-8.573z" fill="url(#q)" opacity=".221" filter="url(#z)"/>
          <path d="M5.59 13.58l12.17-7.035a3.815 3.815 0 0 1 5.726 3.31v5.063c0 3.64-1.94 7.005-5.09 8.826l-12.17 7.034a3.815 3.815 0 0 1-5.725-3.31v-5.063c0-3.64 1.94-7.005 5.09-8.826z" fill="#000" opacity=".429" filter="url(#A)"/>
          <mask id="D" fill="#fff">
            <use xlink:href="#B"/>
          </mask>
          <use fill="#AAF5C2" filter="url(#C)" xlink:href="#B"/>
          <g mask="url(#D)" fill="#AAF5C2">
            <path d="M12.994-10.34l23.569 23.568L11.31 38.479l-23.568-23.568z"/>
          </g>
        </g>
        <g transform="translate(84.528 35.063)">
          <mask id="F" fill="#fff">
            <use xlink:href="#E"/>
          </mask>
          <use fill="#61C187" xlink:href="#E"/>
          <g mask="url(#F)" fill="url(#y)">
            <path d="M-6.984 13.99L22.503-3.036 31.52 12.58 2.032 29.606z"/>
          </g>
        </g>
        <g>
          <g transform="translate(49.288 89.448)">
            <path d="M5.445 14.086l11.822-6.833a3.706 3.706 0 0 1 5.562 3.215v14.818a9.902 9.902 0 0 1-4.944 8.573L6.063 40.693a3.706 3.706 0 0 1-5.562-3.216V22.66a9.902 9.902 0 0 1 4.944-8.573z" fill="url(#q)" opacity=".221" filter="url(#G)"/>
            <path d="M5.59 13.58l12.17-7.035a3.815 3.815 0 0 1 5.726 3.31v5.063c0 3.64-1.94 7.005-5.09 8.826l-12.17 7.034a3.815 3.815 0 0 1-5.725-3.31v-5.063c0-3.64 1.94-7.005 5.09-8.826z" fill="#000" opacity=".429" filter="url(#H)"/>
            <mask id="K" fill="#fff">
              <use xlink:href="#I"/>
            </mask>
            <use fill="#AAF5C2" filter="url(#J)" xlink:href="#I"/>
            <g mask="url(#K)" fill="#AAF5C2">
              <path d="M12.994-10.34l23.569 23.568L11.31 38.479l-23.568-23.568z"/>
            </g>
          </g>
          <g transform="translate(52.528 91.063)">
            <mask id="M" fill="#fff">
              <use xlink:href="#L"/>
            </mask>
            <use fill="#61C187" xlink:href="#L"/>
            <g mask="url(#M)" fill="url(#y)">
              <path d="M-6.984 13.99L22.503-3.036 31.52 12.58 2.032 29.606z"/>
            </g>
          </g>
        </g>
      </g>
    </g>
    <path d="M99.105.15L.549 57.117l27.78 16.057 98.555-56.967z" transform="translate(89.087 123.775)" fill="url(#N)" opacity=".118"/>
    <g transform="translate(79.795 5.35)">
      <mask id="P" fill="#fff">
        <use xlink:href="#O"/>
      </mask>
      <use fill="#C5DAE8" xlink:href="#O"/>
      <g mask="url(#P)" fill="url(#e)">
        <path d="M-4.957 60.92h20.97v113.864h-20.97z"/>
      </g>
      <g mask="url(#P)">
        <g transform="translate(-1 -6.95)">
          <mask id="S" fill="#fff">
            <use xlink:href="#Q"/>
          </mask>
          <use fill="url(#R)" xlink:href="#Q"/>
          <g mask="url(#S)">
            <path d="M-3.957 7.085h118.83v110.868H-3.958z" fill="#E0F1FF"/>
          </g>
        </g>
      </g>
    </g>
    <g transform="translate(86.211 8.825)">
      <mask id="U" fill="#fff">
        <use xlink:href="#T"/>
      </mask>
      <use fill="#9AB8C9" xlink:href="#T"/>
      <g mask="url(#U)" fill="url(#j)">
        <path d="M-58.179 86.192L106.129-8.67l55.933 96.88-164.308 94.863z"/>
      </g>
    </g>
    <g fill="#8AA7B8" fill-rule="nonzero">
      <path d="M97.229 165.614V72.556a1.237 1.237 0 1 0-2.473 0v95.206a1.236 1.236 0 0 0 1.857 1.07l88.956-51.64a1.238 1.238 0 0 0-1.24-2.141l-87.1 50.563z"/>
      <path d="M100.281 139.012l-4.908 2.93a1.238 1.238 0 0 0 1.24 2.141l4.908-2.93a1.238 1.238 0 0 0-1.24-2.141zM100.281 114.262l-4.908 2.93a1.238 1.238 0 0 0 1.24 2.141l4.908-2.93a1.238 1.238 0 0 0-1.24-2.141zM100.281 89.512l-4.908 2.93a1.238 1.238 0 0 0 1.24 2.141l4.908-2.93a1.238 1.238 0 0 0-1.24-2.141zM117.006 155.845v-6.107a1.237 1.237 0 1 0-2.473 0v6.107a1.237 1.237 0 1 0 2.473 0zM136.783 144.523v-6.106a1.237 1.237 0 1 0-2.472 0v6.106a1.237 1.237 0 1 0 2.472 0zM156.56 132.892v-6.107a1.237 1.237 0 1 0-2.472 0v6.107a1.237 1.237 0 1 0 2.472 0zM176.337 121.42v-6.107a1.237 1.237 0 1 0-2.472 0v6.106a1.237 1.237 0 1 0 2.472 0z"/>
    </g>
    <g stroke="#6D8695" stroke-linecap="round" stroke-linejoin="round" stroke-width="2.475">
      <path d="M96.1 143.188l88.997-52.23M96.1 118.438l88.997-52.23M96.1 93.688l88.997-52.23" opacity=".149"/>
      <path d="M115.853 59.431v96.557M135.63 47.056v96.557M155.408 37.156v96.557M175.185 24.781v96.557" opacity=".15"/>
    </g>
    <g transform="translate(103.516 41.712)">
      <mask id="X" fill="#fff">
        <use xlink:href="#V"/>
      </mask>
      <use fill="url(#W)" fill-rule="nonzero" xlink:href="#V"/>
      <g mask="url(#X)" fill="url(#Y)">
        <path d="M.746 1.79h72.895v108.872H.746z"/>
      </g>
    </g>
    <path fill="url(#Z)" opacity=".487" d="M29.04 133.125h9.514v19.8H29.04zM48.817 88.575h9.514v19.8h-9.514zM68.594 103.425h9.514v19.8h-9.514zM88.371 39.075h9.514v19.8h-9.514z" transform="translate(79.795 5.112)"/>
    <g transform="translate(104.578 121.287)">
      <path d="M8.885 1.357c4.861-2.81 8.807.177 8.807 6.666 0 6.488-3.946 14.037-8.807 16.847-4.86 2.81-8.807-.177-8.807-6.666 0-6.488 3.947-14.037 8.807-16.847z" fill="#5C99D1" opacity=".047"/>
      <mask id="ab" fill="#fff">
        <use xlink:href="#aa"/>
      </mask>
      <use fill="#5C99D1" xlink:href="#aa"/>
      <g mask="url(#ab)" fill="url(#Y)">
        <path d="M3.944 3.28h13.98v19.976H3.944z"/>
      </g>
    </g>
    <g transform="translate(110.994 127.237)">
      <mask id="ad" fill="#fff">
        <use xlink:href="#ac"/>
      </mask>
      <use fill="#5C99D1" xlink:href="#ac"/>
      <g mask="url(#ad)" fill="url(#ae)">
        <path d="M-6.472 11.217L2.016-3.485 18.45 6.004 9.962 20.705z"/>
      </g>
    </g>
    <g>
      <g transform="translate(124.293 76.64)">
        <path d="M8.885 1.357c4.861-2.81 8.807.177 8.807 6.666 0 6.488-3.946 14.037-8.807 16.847-4.86 2.81-8.807-.177-8.807-6.666 0-6.488 3.947-14.037 8.807-16.847z" fill="#5C99D1" opacity=".047"/>
        <mask id="ag" fill="#fff">
          <use xlink:href="#af"/>
        </mask>
        <use fill="#5C99D1" xlink:href="#af"/>
        <g mask="url(#ag)" fill="url(#Y)">
          <path d="M3.944 3.28h13.98v19.976H3.944z"/>
        </g>
      </g>
      <g transform="translate(130.71 82.59)">
        <mask id="ai" fill="#fff">
          <use xlink:href="#ah"/>
        </mask>
        <use fill="#5C99D1" xlink:href="#ah"/>
        <g mask="url(#ai)" fill="url(#ae)">
          <path d="M-6.472 11.217L2.088-3.61l16.56 9.561-8.56 14.826z"/>
        </g>
      </g>
    </g>
    <g>
      <g transform="translate(144.07 93.688)">
        <path d="M8.885 1.357c4.861-2.81 8.807.177 8.807 6.666 0 6.488-3.946 14.037-8.807 16.847-4.86 2.81-8.807-.177-8.807-6.666 0-6.488 3.947-14.037 8.807-16.847z" fill="#5C99D1" opacity=".047"/>
        <mask id="ak" fill="#fff">
          <use xlink:href="#aj"/>
        </mask>
        <use fill="#5C99D1" xlink:href="#aj"/>
        <g mask="url(#ak)" fill="url(#Y)">
          <path d="M3.944 3.28h13.98v19.976H3.944z"/>
        </g>
      </g>
      <g transform="translate(150.487 99.638)">
        <mask id="am" fill="#fff">
          <use xlink:href="#al"/>
        </mask>
        <use fill="#5C99D1" xlink:href="#al"/>
        <g mask="url(#am)" fill="url(#ae)">
          <path d="M-6.472 11.217L2.016-3.485 18.45 6.004 9.962 20.705z"/>
        </g>
      </g>
    </g>
    <g>
      <g transform="translate(163.848 29.114)">
        <path d="M8.885 1.357c4.861-2.81 8.807.177 8.807 6.666 0 6.488-3.946 14.037-8.807 16.847-4.86 2.81-8.807-.177-8.807-6.666 0-6.488 3.947-14.037 8.807-16.847z" fill="#5C99D1" opacity=".047"/>
        <mask id="ao" fill="#fff">
          <use xlink:href="#an"/>
        </mask>
        <use fill="#5C99D1" xlink:href="#an"/>
        <g mask="url(#ao)" fill="url(#Y)">
          <path d="M3.944 3.28h13.98v19.976H3.944z"/>
        </g>
      </g>
      <g transform="translate(170.264 35.064)">
        <mask id="aq" fill="#fff">
          <use xlink:href="#ap"/>
        </mask>
        <use fill="#5C99D1" xlink:href="#ap"/>
        <g mask="url(#aq)" fill="url(#ae)">
          <path d="M-6.472 11.217L2.016-3.485 18.45 6.004 9.962 20.705z"/>
        </g>
      </g>
    </g>
    <g filter="url(#ar)" transform="translate(155.23 3)">
      <path fill="url(#b)" opacity=".118" d="M113.993 121.475l-98.555 56.967L43.217 194.5l98.555-56.967z"/>
      <g transform="translate(.652 .425)">
        <mask id="at" fill="#fff">
          <use xlink:href="#as"/>
        </mask>
        <use fill="#B9D2E0" xlink:href="#as"/>
        <g mask="url(#at)" fill="url(#e)">
          <path d="M-6.034 53.688h27.04v124.22h-27.04z"/>
        </g>
        <g mask="url(#at)">
          <g transform="translate(-1 -6.95)">
            <mask id="av" fill="#fff">
              <use xlink:href="#au"/>
            </mask>
            <use fill="#8099A7" xlink:href="#au"/>
            <g mask="url(#av)">
              <path d="M.987 2.167H120.16v118.21H.987z" fill="#E0F1FF"/>
            </g>
          </g>
        </g>
      </g>
      <g transform="translate(12.013 5.85)">
        <mask id="ax" fill="#fff">
          <use xlink:href="#aw"/>
        </mask>
        <use fill="#8B8B8B" xlink:href="#aw"/>
        <g mask="url(#ax)" fill="url(#j)">
          <path d="M-58.179 86.717L106.604-8.42l56.1 97.168-164.783 95.138z"/>
        </g>
        <use fill="#6D8695" opacity=".264" xlink:href="#ay"/>
      </g>
      <g fill="#94ADBC">
        <path d="M22.583 83.617l33.653-19.451a2.475 2.475 0 0 1 3.713 2.142v2.081a4.95 4.95 0 0 1-2.473 4.286L23.824 92.127a2.475 2.475 0 0 1-3.714-2.143v-2.081a4.95 4.95 0 0 1 2.473-4.286zM22.583 115.792l33.653-19.451a2.475 2.475 0 0 1 3.713 2.142v2.081a4.95 4.95 0 0 1-2.473 4.286l-33.652 19.452a2.475 2.475 0 0 1-3.714-2.143v-2.081a4.95 4.95 0 0 1 2.473-4.286zM22.55 99.78l23.743-13.968a2.475 2.475 0 0 1 3.73 2.133v2.068a4.95 4.95 0 0 1-2.44 4.267L23.84 108.247a2.475 2.475 0 0 1-3.73-2.133v-2.068a4.95 4.95 0 0 1 2.44-4.267z"/>
      </g>
      <path fill="url(#az)" opacity=".118" d="M145.009 153.824l33.853 21.027-33.853 20.354-33.853-20.354z"/>
      <g>
        <g transform="translate(67.636 21.408)">
          <mask id="aB" fill="#fff">
            <use xlink:href="#aA"/>
          </mask>
          <use fill="#5CBD84" xlink:href="#aA"/>
          <g mask="url(#aB)" fill="url(#aC)">
            <path d="M-47.251 52.748L79.57-29.61l79.66 122.665-126.823 82.359z"/>
          </g>
        </g>
        <g transform="translate(79.997 28.833)">
          <mask id="aE" fill="#fff">
            <use xlink:href="#aD"/>
          </mask>
          <use fill="#66C58B" xlink:href="#aD"/>
          <g mask="url(#aE)" fill="url(#y)">
            <path d="M-89.059 71.411L47.432-47.239 154.296 75.696l-136.49 118.65z"/>
          </g>
        </g>
      </g>
    </g>
  </g>
</svg>
