<?xml version="1.0" standalone="no"?>
<!DOCTYPE svg PUBLIC "-//W3C//DTD SVG 20010904//EN"
 "http://www.w3.org/TR/2001/REC-SVG-20010904/DTD/svg10.dtd">
<svg version="1.0" xmlns="http://www.w3.org/2000/svg"
 width="1667.000000pt" height="1667.000000pt" viewBox="0 0 1667.000000 1667.000000"
 preserveAspectRatio="xMidYMid meet">
<metadata>
Created by potrace 1.11, written by Peter Selinger 2001-2013
</metadata>
<g transform="translate(0.000000,1667.000000) scale(0.100000,-0.100000)"
fill="#000000" stroke="none">
<path d="M11190 16028 c-1 -50 -1 -4873 0 -4904 0 -20 8 -23 103 -34 56 -7
110 -14 120 -16 10 -2 55 -6 100 -9 45 -4 93 -8 107 -11 139 -23 751 -23 944
1 16 2 65 7 110 10 44 4 83 8 86 10 3 1 32 6 65 10 33 3 78 10 100 15 22 5 60
11 85 14 111 13 506 106 680 161 47 14 146 47 221 72 l136 45 0 2339 1 2339
-1429 0 -1429 0 0 -42z"/>
<path d="M6745 12908 l0 -542 40 -7 c22 -4 56 -10 75 -14 19 -3 134 -31 255
-61 263 -66 226 -56 360 -94 61 -17 117 -33 125 -35 8 -2 27 -8 43 -14 15 -6
38 -13 50 -15 23 -5 209 -68 697 -236 660 -228 1200 -403 1209 -394 3 3 6 444
6 980 l0 974 -1430 0 -1430 0 0 -542z"/>
<path d="M16525 12034 c-106 -65 -163 -99 -278 -168 -18 -10 -86 -50 -152 -90
-140 -83 -117 -70 -297 -172 -168 -96 -202 -115 -328 -181 -52 -28 -122 -65
-155 -83 -83 -46 -369 -189 -490 -245 -147 -69 -514 -225 -528 -225 -7 0 -17
-4 -23 -8 -5 -5 -31 -17 -59 -27 -27 -9 -63 -23 -80 -30 -61 -27 -489 -167
-550 -181 -5 -1 -82 -20 -170 -42 -152 -39 -267 -64 -345 -76 -19 -3 -48 -8
-65 -11 -76 -14 -144 -25 -190 -30 -27 -4 -60 -8 -73 -10 -13 -2 -51 -7 -85
-10 -34 -3 -80 -8 -102 -10 -224 -23 -695 -23 -940 0 -132 12 -182 17 -195 20
-8 1 -46 6 -85 10 -38 5 -72 9 -75 10 -3 0 -31 5 -64 9 -32 4 -69 10 -82 12
-13 2 -34 6 -46 8 -140 24 -341 64 -463 92 -82 19 -161 37 -173 40 -13 2 -49
12 -80 20 -32 8 -66 17 -77 19 -11 3 -85 23 -165 45 -80 23 -167 47 -195 55
-27 7 -81 23 -120 35 -38 12 -77 23 -85 25 -84 20 -761 245 -1455 483 -512
175 -521 178 -630 211 -120 36 -300 85 -410 113 -44 11 -87 21 -95 23 -77 21
-284 67 -405 91 -11 2 -31 6 -45 9 -14 2 -40 7 -57 10 -41 6 -81 13 -113 20
-14 3 -72 12 -130 20 -58 9 -116 18 -130 20 -25 4 -145 19 -230 29 -25 3 -76
8 -115 11 -38 3 -88 7 -110 10 -236 26 -884 26 -1150 0 -176 -17 -259 -26
-285 -30 -14 -2 -47 -7 -75 -11 -27 -3 -59 -8 -70 -10 -10 -2 -37 -6 -60 -9
-22 -3 -62 -10 -90 -15 -27 -5 -63 -12 -80 -15 -25 -4 -188 -37 -245 -50 -8
-2 -44 -11 -80 -20 -36 -9 -72 -18 -80 -20 -151 -32 -613 -182 -755 -245 -11
-5 -65 -28 -120 -50 -98 -41 -491 -232 -590 -287 -406 -226 -787 -498 -1164
-828 -65 -57 -245 -231 -326 -315 -179 -185 -238 -249 -366 -401 -53 -62 -231
-287 -244 -308 -8 -13 61 22 148 76 21 13 53 32 70 42 18 10 103 60 191 110
87 50 160 91 162 91 2 0 25 13 51 28 167 98 679 355 903 452 41 18 98 43 125
55 321 144 1003 375 1245 421 14 3 41 9 60 15 42 11 398 85 455 94 235 35 326
47 460 60 33 4 75 8 94 11 195 26 952 26 1236 -1 22 -2 69 -6 105 -9 36 -4 76
-8 90 -10 14 -2 52 -7 85 -10 33 -4 71 -8 85 -10 14 -3 48 -7 75 -11 226 -28
637 -106 905 -171 80 -20 153 -37 163 -39 9 -2 20 -6 25 -8 5 -4 9 -1931 3
-1958 0 -3 -356 -6 -791 -6 l-790 0 0 449 0 448 -1430 0 -1430 0 0 -552 -1
-553 -112 -44 c-339 -132 -660 -337 -906 -579 -138 -136 -194 -203 -284 -339
-156 -236 -246 -472 -281 -733 -11 -83 -13 -253 -11 -800 l3 -695 26 -115 c36
-160 33 -151 65 -238 165 -448 517 -839 1011 -1126 38 -22 270 -137 335 -166
25 -11 198 -74 256 -94 56 -18 233 -66 268 -72 14 -3 40 -9 56 -14 26 -8 62
-15 180 -34 65 -11 173 -25 235 -30 36 -4 92 -8 125 -11 67 -6 363 -7 410 -1
17 2 62 6 100 10 91 9 264 48 362 82 71 24 251 107 297 137 277 177 430 338
706 742 165 242 199 286 299 385 136 135 270 190 477 195 163 4 259 -19 360
-87 50 -33 159 -148 205 -214 18 -27 37 -53 42 -59 4 -5 68 -100 140 -210 165
-250 265 -381 381 -498 240 -243 494 -380 841 -453 254 -54 718 -44 1045 21
23 5 36 7 103 19 106 18 498 137 522 158 5 4 15 8 22 8 29 0 307 135 434 210
601 356 983 884 1057 1459 4 31 7 378 7 771 0 708 -1 716 -23 820 -90 412
-297 754 -642 1061 -196 174 -460 341 -706 447 l-99 43 1 672 c1 370 2 677 3
683 1 8 25 5 79 -7 68 -17 241 -54 297 -65 236 -45 277 -52 325 -59 14 -2 52
-8 85 -13 33 -6 83 -14 110 -17 28 -3 61 -8 75 -10 38 -6 105 -13 215 -24 278
-28 401 -35 685 -35 233 0 342 4 518 21 34 3 62 2 63 -3 4 -62 -1 -5377 -5
-5424 -11 -121 -17 -165 -26 -215 -5 -27 -12 -65 -15 -82 -14 -88 -77 -313
-105 -378 -4 -11 -23 -56 -40 -100 -166 -411 -484 -816 -875 -1110 -146 -110
-278 -192 -445 -276 -290 -145 -645 -259 -920 -294 -30 -4 -64 -9 -75 -11 -97
-19 -585 -26 -725 -11 -137 15 -393 62 -476 88 -17 5 -40 11 -50 13 -35 8
-238 76 -319 108 -162 64 -496 246 -581 315 -19 16 -21 24 -14 73 9 67 4 187
-11 259 -70 341 -311 625 -690 811 -83 41 -246 104 -299 115 -8 2 -42 10 -75
18 -33 8 -82 18 -108 22 -27 3 -58 8 -68 10 -78 15 -385 23 -444 11 -11 -2
-49 -7 -85 -11 -79 -9 -74 -8 -185 -34 -447 -106 -810 -365 -974 -697 -76
-154 -96 -246 -96 -434 1 -257 100 -475 315 -691 301 -302 744 -463 1245 -453
83 1 166 5 185 8 146 23 157 25 245 47 44 11 85 22 90 23 6 2 23 8 38 14 16 7
32 12 36 12 22 0 249 107 314 147 l38 24 104 -65 c146 -93 189 -116 370 -205
322 -158 696 -284 1001 -337 16 -3 36 -7 44 -9 28 -8 275 -44 360 -52 105 -10
706 -11 812 -1 116 11 352 47 457 69 104 23 102 22 186 44 33 9 68 18 77 20
69 16 279 87 413 140 334 132 633 300 920 515 61 46 112 86 115 89 3 3 34 31
70 61 413 347 776 840 973 1320 105 256 189 556 213 755 3 22 7 47 9 55 2 8 7
44 10 80 4 36 9 76 12 90 4 14 7 1296 9 2850 1 1554 3 2835 3 2847 1 18 11 24
59 37 440 121 958 349 1412 624 140 84 384 243 475 310 33 24 71 51 84 60 40
28 246 185 251 191 3 3 52 44 110 91 58 47 112 92 121 100 9 8 47 42 84 75
146 128 188 168 446 425 223 222 364 373 548 586 46 53 54 64 45 63 -5 0 -63
-34 -129 -75z m-8084 -4348 c68 -3 135 -8 149 -10 14 -3 75 -12 135 -21 781
-117 1392 -591 1473 -1144 4 -25 7 -334 7 -686 0 -587 -2 -647 -19 -720 -78
-341 -332 -632 -738 -848 -207 -110 -553 -216 -793 -243 -33 -3 -69 -8 -80
-11 -46 -10 -404 -13 -455 -4 -30 6 -66 12 -80 15 -84 15 -201 73 -285 143
-107 88 -192 199 -424 553 -226 346 -436 553 -687 682 -110 56 -256 108 -354
124 -14 3 -32 7 -40 9 -66 19 -387 27 -527 13 -175 -18 -397 -84 -547 -162
-81 -42 -136 -75 -146 -86 -3 -3 -18 -14 -35 -24 -53 -34 -208 -173 -270 -242
-87 -98 -169 -204 -260 -338 -239 -349 -334 -468 -441 -547 -54 -40 -160 -97
-191 -104 -10 -2 -47 -11 -83 -21 -51 -14 -106 -18 -260 -18 -252 -1 -316 5
-607 60 -12 2 -35 9 -50 15 -16 6 -30 10 -33 10 -15 -1 -188 52 -225 69 -11 5
-45 19 -75 31 -86 33 -247 117 -338 177 -87 57 -90 59 -185 141 -203 173 -344
403 -388 634 -14 71 -20 1272 -7 1372 27 207 144 429 323 609 283 285 690 470
1210 552 61 9 89 12 235 19 74 4 136 8 137 9 6 5 4856 -3 4954 -8z"/>
<path d="M3528 7245 c-2 -2 -37 -6 -78 -9 -41 -3 -84 -7 -95 -9 -11 -3 -40 -8
-65 -12 -25 -4 -81 -16 -125 -26 -437 -108 -787 -358 -941 -674 -77 -159 -86
-209 -88 -523 -2 -288 1 -312 45 -377 37 -54 92 -80 169 -80 73 1 111 17 163
68 51 51 56 86 57 349 1 163 5 252 15 287 39 148 174 297 366 403 101 57 302
124 419 142 19 3 46 8 60 11 14 3 75 8 135 11 142 7 194 19 237 54 93 77 104
231 22 315 -54 56 -88 68 -196 71 -53 1 -98 0 -100 -1z"/>
</g>
</svg>
